<?xml version="1.0" standalone="no"?>
<!DOCTYPE svg PUBLIC "-//W3C//DTD SVG 20010904//EN"
 "http://www.w3.org/TR/2001/REC-SVG-20010904/DTD/svg10.dtd">
<svg version="1.0" xmlns="http://www.w3.org/2000/svg"
 width="160.000000pt" height="48.000000pt" viewBox="0 0 160.000000 48.000000"
 preserveAspectRatio="xMidYMid meet">

<g transform="translate(0.000000,48.000000) scale(0.100000,-0.100000)"
fill="#000000" stroke="none">
<path d="M234 425 c-4 -8 -25 -23 -49 -34 -51 -22 -92 -73 -111 -138 -22 -73
-1 -143 57 -184 l31 -22 -12 23 c-7 12 -9 36 -6 52 5 24 0 37 -24 65 -18 20
-30 45 -30 62 0 66 79 109 144 79 26 -12 35 -12 56 -1 37 21 100 10 127 -22
32 -37 29 -77 -8 -120 -23 -26 -30 -41 -25 -59 3 -14 2 -36 -4 -51 l-10 -26
30 21 c58 41 78 109 55 186 -19 64 -74 125 -129 144 -20 6 -36 16 -36 20 0 5
-7 7 -15 4 -8 -4 -15 -1 -15 5 0 16 -20 13 -26 -4z"/>
<path d="M910 329 c-57 -23 -78 -71 -44 -100 9 -8 42 -23 73 -34 42 -15 57
-25 59 -42 7 -51 -92 -69 -133 -23 -20 22 -35 18 -35 -10 0 -49 148 -72 190
-30 12 12 20 33 20 54 0 42 -28 67 -101 91 -49 17 -59 31 -37 53 19 19 59 14
84 -9 23 -22 44 -19 44 6 0 32 -78 60 -120 44z"/>
<path d="M1153 330 c-24 -4 -44 -8 -47 -11 -9 -9 -25 -234 -17 -242 13 -13
127 -10 157 5 44 21 65 58 66 115 0 103 -54 148 -159 133z m96 -54 c17 -18 23
-36 23 -71 0 -67 -32 -98 -99 -99 l-48 -1 2 45 c2 25 5 69 9 98 l5 52 43 0
c32 0 48 -6 65 -24z"/>
<path d="M643 310 c-83 -50 -85 -196 -3 -230 62 -26 186 8 153 41 -8 8 -17 7
-34 -5 -29 -20 -88 -21 -116 -1 -44 31 -38 137 10 170 27 19 68 19 93 0 26
-20 34 -19 34 5 0 41 -82 54 -137 20z"/>
<path d="M1433 315 c-15 -11 -22 -12 -25 -3 -2 6 -11 9 -20 6 -16 -7 -21 -31
-34 -176 -6 -67 -5 -72 14 -72 17 0 20 9 26 77 10 111 38 153 100 153 49 0 57
-21 49 -131 -5 -88 -4 -99 10 -99 19 0 24 17 32 127 6 79 5 84 -19 108 -29 29
-98 35 -133 10z"/>
<path d="M130 278 c-11 -12 -20 -31 -20 -43 0 -32 36 -65 70 -65 29 0 70 29
70 50 0 20 27 9 38 -15 21 -45 82 -47 114 -4 34 45 2 99 -58 99 -28 0 -38 -6
-52 -30 -16 -29 -42 -41 -42 -20 0 6 -9 19 -20 30 -27 27 -74 26 -100 -2z m94
-10 c21 -30 20 -44 -4 -68 -36 -36 -90 -16 -90 35 0 52 65 74 94 33z m160 6
c37 -37 1 -103 -49 -90 -14 4 -31 17 -37 31 -23 52 46 100 86 59z"/>
<path d="M144 255 c-7 -17 12 -45 31 -45 19 0 36 25 29 44 -8 20 -53 21 -60 1z"/>
<path d="M324 255 c-7 -18 12 -45 32 -45 16 0 33 30 27 48 -7 17 -52 15 -59
-3z"/>
<path d="M230 150 c0 -5 5 -10 10 -10 6 0 10 5 10 10 0 6 -4 10 -10 10 -5 0
-10 -4 -10 -10z"/>
<path d="M280 150 c0 -5 5 -10 10 -10 6 0 10 5 10 10 0 6 -4 10 -10 10 -5 0
-10 -4 -10 -10z"/>
</g>
</svg>
