<svg height="511pt" viewBox="0 1 511 511.999" width="511pt" xmlns="http://www.w3.org/2000/svg"><path d="m41.492188 470.929688c-41.3945318-41.425782-41.3945318-108.589844 0-150.015626l279.632812-279.847656c41.394531-41.421875 108.503906-41.421875 149.898438 0 41.394531 41.425782 41.394531 108.589844 0 150.015625l-279.632813 279.847657c-41.394531 41.425781-108.507813 41.425781-149.898437 0zm0 0" fill="#ff6b6b"/><path d="m398.335938 273.652344-19.613282-19.628906c-5.046875-5.050782-5.046875-13.234376 0-18.285157l49.761719-49.796875c5.050781-5.058594 13.246094-5.058594 18.300781 0l19.609375 19.625c5.046875 5.050782 5.046875 13.238282 0 18.289063l-49.757812 49.796875c-5.050781 5.054687-13.25 5.054687-18.300781 0zm0 0" fill="#feec76"/><path d="m258.214844 133.425781-19.613282-19.625c-5.046874-5.054687-5.046874-13.238281 0-18.289062l49.761719-49.796875c5.050781-5.058594 13.246094-5.058594 18.300781 0l19.613282 19.625c5.046875 5.050781 5.046875 13.238281 0 18.289062l-49.761719 49.796875c-5.050781 5.054688-13.246094 5.054688-18.300781 0zm0 0" fill="#feec76"/><path d="m199.707031 414.890625-102.222656-102.296875 22.839844-22.855469 102.21875 102.300781zm0 0" fill="#fff"/><path d="m392.191406 222.257812-102.21875-102.296874 22.835938-22.855469 102.21875 102.300781zm0 0" fill="#fff"/><path d="m205.851562 466.285156-19.613281-19.628906c-5.046875-5.050781-5.046875-13.234375 0-18.285156l49.761719-49.796875c5.050781-5.058594 13.246094-5.058594 18.300781 0l19.609375 19.625c5.046875 5.050781 5.046875 13.238281 0 18.289062l-49.757812 49.796875c-5.054688 5.054688-13.25 5.054688-18.300782 0zm0 0" fill="#feec76"/><path d="m65.730469 326.058594-19.609375-19.628906c-5.050782-5.050782-5.050782-13.234376 0-18.285157l49.757812-49.796875c5.050782-5.058594 13.25-5.058594 18.300782 0l19.613281 19.625c5.046875 5.050782 5.046875 13.238282 0 18.289063l-49.757813 49.796875c-5.054687 5.054687-13.25 5.054687-18.304687 0zm0 0" fill="#feec76"/><path d="m478.097656 198.148438c45.222656-45.253907 45.222656-118.890626 0-164.148438-21.910156-21.925781-51.039062-34-82.023437-34s-60.113281 12.074219-82.023438 34l-2.621093 2.621094c-3.976563-3.046875-8.820313-4.699219-13.914063-4.699219-6.132813 0-11.894531 2.386719-16.226563 6.726563l-49.761718 49.796874c-8.203125 8.210938-8.871094 21.15625-1.996094 30.140626l-110.585938 110.667968c-3.976562-3.046875-8.820312-4.699218-13.917968-4.699218-6.128906 0-11.890625 2.386718-16.226563 6.722656l-49.757812 49.796875c-8.207031 8.214843-8.871094 21.160156-1.996094 30.144531l-2.632813 2.628906c-45.21875 45.257813-45.21875 118.894532 0 164.152344 21.910157 21.925781 51.039063 34 82.023438 34s60.113281-12.074219 82.023438-34l2.621093-2.621094c3.976563 3.046875 8.820313 4.699219 13.917969 4.699219 6.128906 0 11.890625-2.390625 16.222656-6.726563l49.761719-49.796874c8.203125-8.210938 8.871094-21.15625 1.996094-30.140626l110.585937-110.667968c3.980469 3.046875 8.820313 4.699218 13.917969 4.699218 6.128906 0 11.894531-2.386718 16.226563-6.722656l49.757812-49.796875c8.207031-8.214843 8.871094-21.160156 2-30.144531zm-82.023437-178.148438c25.640625 0 49.746093 9.992188 67.875 28.136719 37.433593 37.460937 37.433593 98.414062 0 135.875l-2.476563 2.480469-7.617187-7.621094c-4.332031-4.335938-10.09375-6.722656-16.222657-6.722656-6.128906 0-11.894531 2.386718-16.226562 6.722656l-6.378906 6.386718-88.082032-88.152343 6.402344-6.410157c8.933594-8.9375 8.933594-23.484374 0-32.425781l-7.636718-7.644531 2.488281-2.488281c18.128906-18.144531 42.234375-28.136719 67.875-28.136719zm-24.425781 241.09375 7.640624 7.644531-110.300781 110.386719-7.613281-7.621094c-4.335938-4.335937-10.097656-6.722656-16.226562-6.722656-6.128907 0-11.894532 2.386719-16.226563 6.722656l-6.378906 6.386719-36.972657-37 47.035157-47.074219c3.902343-3.90625 3.902343-10.238281-.007813-14.140625-3.90625-3.90625-10.238281-3.902343-14.140625.003907l-47.027343 47.058593-36.972657-37 6.40625-6.410156c8.933594-8.9375 8.933594-23.484375 0-32.421875l-7.640625-7.648438 110.304688-110.386718 7.613281 7.621094c4.332031 4.335937 10.097656 6.726562 16.226563 6.726562 6.128906 0 11.890624-2.390625 16.226562-6.726562l6.378906-6.382813 36.972656 37-47.035156 47.074219c-3.902344 3.90625-3.902344 10.238281.003906 14.140625 1.953126 1.949219 4.511719 2.925781 7.070313 2.925781s5.121094-.976562 7.074219-2.933594l47.023437-47.058594 36.972657 37-6.40625 6.410157c-8.929688 8.941406-8.929688 23.484375 0 32.425781zm-171.941407 139.652344-88.082031-88.152344 8.699219-8.707031 88.082031 88.152343zm113.101563-289.492188 88.082031 88.152344-8.699219 8.707031-88.082031-88.152343zm-67.132813-8.675781 49.761719-49.796875c.710938-.710938 1.523438-.859375 2.078125-.859375s1.363281.148437 2.074219.859375l19.613281 19.625c1.144531 1.144531 1.144531 3.007812 0 4.152344l-49.761719 49.796875c-.710937.710937-1.519531.863281-2.074218.863281-.558594 0-1.367188-.152344-2.078126-.863281l-19.609374-19.625c-1.144532-1.144531-1.144532-3.007813-.003907-4.152344zm-192.484375 192.632813 49.761719-49.796876c.710937-.710937 1.519531-.859374 2.074219-.859374.558594 0 1.367187.148437 2.078125.859374l19.613281 19.625c1.140625 1.148438 1.140625 3.007813 0 4.152344l-49.761719 49.796875c-.710937.710938-1.519531.863281-2.074219.863281-.554687 0-1.367187-.152343-2.078124-.863281l-19.613282-19.625c-1.140625-1.144531-1.140625-3.007812 0-4.152343zm63.25 196.789062c-25.640625 0-49.746094-9.992188-67.875-28.136719-37.433594-37.460937-37.433594-98.417969-.003906-135.878906l2.480469-2.480469 7.617187 7.621094h-.003906c4.335938 4.335938 10.097656 6.726562 16.226562 6.726562 6.128907 0 11.890626-2.390624 16.226563-6.726562l6.378906-6.382812 88.082031 88.152343-6.402343 6.40625c-8.9375 8.941407-8.9375 23.488281-.003907 32.425781l7.640626 7.644532-2.488282 2.492187c-18.132812 18.144531-42.238281 28.136719-67.875 28.136719zm150.394532-82.582031-49.757813 49.796875c-.710937.710937-1.523437.863281-2.078125.863281s-1.363281-.148437-2.074219-.863281l-19.613281-19.625c-1.144531-1.144532-1.144531-3.007813 0-4.152344l49.757812-49.796875c.714844-.710937 1.523438-.859375 2.078126-.859375.554687 0 1.367187.148438 2.078124.859375l19.609376 19.625c1.144531 1.148437 1.144531 3.007813 0 4.152344zm192.484374-192.632813-49.757812 49.800782c-.710938.710937-1.519531.859374-2.078125.859374-.554687 0-1.363281-.148437-2.074219-.859374l-19.613281-19.628907c-1.140625-1.144531-1.140625-3.007812 0-4.152343l49.761719-49.796876c.710937-.710937 1.519531-.859374 2.074218-.859374.554688 0 1.367188.148437 2.078126.859374l19.609374 19.628907c1.144532 1.144531 1.144532 3.003906 0 4.148437zm0 0"/><path d="m256.257812 266c-.652343 0-1.3125-.0625-1.949218-.191406-.640625-.128906-1.269532-.328125-1.871094-.578125-.609375-.25-1.1875-.5625-1.730469-.921875-.550781-.359375-1.0625-.78125-1.519531-1.238282-.460938-.460937-.878906-.972656-1.242188-1.519531-.367187-.542969-.667968-1.121093-.917968-1.722656-.25-.609375-.449219-1.238281-.570313-1.878906-.128906-.640625-.199219-1.300781-.199219-1.949219 0-.652344.070313-1.3125.199219-1.949219.121094-.640625.320313-1.273437.570313-1.871093.25-.609376.550781-1.191407.917968-1.730469.363282-.550781.78125-1.058594 1.242188-1.519531.460938-.460938.96875-.878907 1.519531-1.242188.539063-.359375 1.121094-.667969 1.730469-.917969.601562-.25 1.230469-.449219 1.871094-.570312 1.289062-.261719 2.609375-.261719 3.898437 0 .640625.121093 1.269531.320312 1.878907.570312.601562.25 1.179687.558594 1.722656.917969.546875.363281 1.058594.78125 1.519531 1.242188.460937.460937.878906.96875 1.238281 1.519531.359375.539062.671875 1.121093.921875 1.730469.25.597656.449219 1.230468.578125 1.871093.128906.636719.191406 1.296875.191406 1.949219 0 .648438-.0625 1.308594-.191406 1.949219s-.328125 1.269531-.578125 1.878906c-.25.601563-.5625 1.179687-.921875 1.722656-.359375.546875-.777344 1.058594-1.238281 1.519531-.460937.457032-.972656.878907-1.519531 1.238282-.542969.359375-1.121094.671875-1.722656.921875-.609376.25-1.238282.449219-1.878907.578125s-1.300781.191406-1.949219.191406zm0 0"/></svg>